<?xml version="1.0" encoding="utf-8"?>
<!-- Generator: Adobe Illustrator 24.1.3, SVG Export Plug-In . SVG Version: 6.00 Build 0)  -->
<svg version="1.1" id="Layer_1" xmlns="http://www.w3.org/2000/svg" xmlns:xlink="http://www.w3.org/1999/xlink" x="0px" y="0px"
	 viewBox="0 0 113.6428 250.6869" enable-background="new 0 0 113.6428 250.6869" xml:space="preserve">
<g>
	<path d="M64.815,57.3224c3.8555-4.0391,6.2285-9.5059,6.2285-15.5313c0-12.4257-10.0742-22.5-22.5-22.5
		c-12.4277,0-22.5,10.0743-22.5,22.5c0,6.1729,2.4864,11.7627,6.5098,15.8272c0.7617-0.1904,1.542-0.2959,2.3379-0.2959H64.815z"/>
	<path d="M62.4849,239.1217c0.4414,6.8184,6.3223,11.9785,13.1368,11.5391c6.8125-0.4414,11.9799-6.3203,11.5371-13.1367
		l-5.5069-85.0567c-11.3388,0.8936-19.8086,6.1963-24.1591,9.5957L62.4849,239.1217z"/>
	<path d="M26.7642,152.5289l-5.5039,84.9952c-0.4414,6.8164,4.7266,12.6953,11.5371,13.1367
		c6.8145,0.4394,12.6973-4.7207,13.1387-11.5391l5.0117-77.3906C46.7701,158.1754,38.6178,152.9,26.7642,152.5289z"/>
	<path d="M94.9591,0.9943c-3.8692,2.1289-5.2813,6.9941-3.1504,10.8662c4.3672,7.9433,5.8301,14.2676,5.834,19.3125
		c-0.0186,5.084-1.4356,9.0742-3.6973,12.667c-3.3672,5.3506-8.9722,9.5742-13.8482,12.2724
		c-2.4209,1.3555-4.6298,2.3389-6.1826,2.9639c-0.2265,0.0908-0.4336,0.1719-0.6308,0.248H34.8931
		c-1.2382,0-2.4023,0.2979-3.4394,0.8145c-1.9004,0.6943-8.6914,3.4111-15.7119,9.9775
		c-7.9014,7.3008-15.8213,20.045-15.7412,38.4439c0.0019,11.1601,2.7715,24.251,9.4853,39.6396
		c1.3115,3.0078,4.249,4.8028,7.334,4.8028c1.0684,0,2.1533-0.2149,3.1963-0.669c4.0488-1.7656,5.9004-6.4795,4.1348-10.5303
		c-6.0342-13.8378-8.1504-24.7587-8.1504-33.2431c0.082-13.9102,5.3808-21.6636,10.6972-26.7837
		c0.1553-0.1465,0.3106-0.2803,0.4668-0.4209v51.0347c3.3301,1.7011,14.7842,7.0547,27.045,7.0547
		c10.8632,0,22.0488-4.4415,27.0468-6.7051V73.3517c3.4356-1.4697,8.2671-3.876,13.2613-7.4922
		c4.5449-3.3105,9.2519-7.6689,12.9277-13.4297c3.6719-5.7383,6.2168-12.9795,6.1973-21.2568
		c0.0019-8.2256-2.4395-17.2754-7.8184-27.0303C103.6934,0.2716,98.8282-1.1376,94.9591,0.9943z"/>
</g>
</svg>
