<?xml version="1.0" encoding="utf-8"?>
<!-- Generator: Adobe Illustrator 23.0.2, SVG Export Plug-In . SVG Version: 6.00 Build 0)  -->
<svg version="1.1" id="Layer_1" xmlns="http://www.w3.org/2000/svg" xmlns:xlink="http://www.w3.org/1999/xlink" x="0px" y="0px"
	 viewBox="0 0 100.0128 236.9906" enable-background="new 0 0 100.0128 236.9906" xml:space="preserve">
<g>
	<path d="M83.7159,56.9672c-5.6092-5.2709-11.0894-6.1777-13.9058-6.2445c-0.1616-0.0101-0.3221-0.0245-0.4863-0.0245h-0.0241
		c0.2039,5.1512,1.3834,24.6038,7.7526,38.7661V74.7925c4.4704,9.2981,8.4518,28.0289,6.3964,63.1659
		c-0.2578,4.4102,3.1084,8.1953,7.519,8.4531c0.1592,0.0098,0.3174,0.0137,0.4746,0.0137c4.2046,0,7.7305-3.2813,7.979-7.5332
		C101.8931,96.645,96.6089,69.0815,83.7159,56.9672z"/>
	<path d="M50.0057,73.4901c14.3698,0,14.1559-16.2194,13.4805-22.7919H36.5253C35.8498,57.2706,35.6359,73.4901,50.0057,73.4901z"/>
	<path d="M30.7117,50.6982h-0.0226c-0.1652,0-0.3267,0.0145-0.4893,0.0247c-2.8164,0.0673-8.2949,0.9749-13.9038,6.2443
		C3.4039,69.0805-1.8803,96.644,0.5914,138.892c0.2485,4.252,3.7739,7.5342,7.979,7.5332c0.1572,0,0.3159-0.0039,0.4746-0.0137
		c4.4106-0.2578,7.7769-4.043,7.519-8.4531c-2.0555-35.1395,1.9262-53.8704,6.3965-63.1677v14.6702
		C29.3285,75.2989,30.5079,55.849,30.7117,50.6982z"/>
	<circle cx="50.0065" cy="22.5" r="22.5"/>
	<path d="M22.0782,129.8503l-7.6478,93.7717c-0.5547,6.8071,4.5136,12.7725,11.3183,13.3271
		c6.8047,0.5542,12.7734-4.5098,13.3281-11.3174l6.6292-81.2815h8.6011l6.6292,81.2815
		c0.5547,6.8076,6.5234,11.8716,13.3281,11.3174c6.8047-0.5547,11.8731-6.52,11.3184-13.3271l-7.6479-93.7717H22.0782z"/>
</g>
</svg>
