<?xml version="1.0" encoding="utf-8"?>
<!-- Generator: Adobe Illustrator 23.0.2, SVG Export Plug-In . SVG Version: 6.00 Build 0)  -->
<svg version="1.1" id="Layer_1" xmlns="http://www.w3.org/2000/svg" xmlns:xlink="http://www.w3.org/1999/xlink" x="0px" y="0px"
	 viewBox="0 0 93.3741 230.4445" enable-background="new 0 0 93.3741 230.4445" xml:space="preserve">
<g>
	<path d="M21.912,50.1157c3.1414-1.2628,7.2882-2.5669,12.3561-3.4456c0.046-1.6494,0.0996-3.2495,0.2188-4.7452
		c-3.619-2.1699-6.6162-5.2728-8.6569-8.9752c-2.6239,3.6406-4.2783,9.0004-3.9246,16.9717
		C21.9084,49.9879,21.9094,50.0496,21.912,50.1157z"/>
	<circle cx="46.6872" cy="21.5" r="21.5"/>
	<path d="M20.7685,53.1085l4.7555,15.4694c4.1051-1.8455,11.7458-3.3032,20.3746,4.8107c0.4434,0.416,1.1328,0.416,1.5762,0
		c8.5989-8.0872,16.2552-6.6333,20.3704-4.7969l4.7603-15.485c-4.99-2.2766-13.7386-5.1884-25.9159-5.1884
		C34.5084,47.9183,25.7582,50.8316,20.7685,53.1085z"/>
	<path d="M66.0988,86.5566c2.6852-3.1403,4.4651-7.8541,5.5281-11.4871c3.4839,11.6746,8.0878,31.3607,8.7506,55.5029
		c0.0967,3.5273,2.9863,6.3213,6.4941,6.3213c0.0596,0,0.1201-0.001,0.1816-0.0029c3.5879-0.0977,6.417-3.0869,6.3184-6.6758
		c-1.1455-41.752-13.251-70.6563-13.7656-71.8662c-0.7075-1.6626-2.0259-2.8762-3.5825-3.4939
		c-0.2084-0.1212-0.4435-0.2538-0.6964-0.3927l-4.8933,15.9178c-0.614,2.8906-2.7283,11.5087-6.8093,15.4518
		c-0.502,0.322-4.0168,2.2709-10.7395-1.2883c-0.5625-0.2964-1.2578-0.0825-1.5547,0.4785
		c-0.2969,0.5615-0.083,1.2573,0.4785,1.5547c3.4248,1.812,6.2061,2.3618,8.3203,2.3618c1.9636,0,3.3521-0.4741,4.1465-0.8516
		c0.2174,0.6406,0.5349,2.2465,0.4141,6.0522c-0.0078,0.2344,0.0566,0.4653,0.1846,0.6616
		c1.9395,2.9951,9.6455,35.9492,11.1445,50.6357c-3.8252,0.9844-18.5771,4.5889-29.332,4.5889s-25.5068-3.6045-29.332-4.5889
		c1.499-14.6846,9.2051-47.6392,11.1455-50.6357c0.127-0.1968,0.1914-0.4272,0.1836-0.6616
		c-0.1208-3.8056,0.1965-5.4115,0.4139-6.0522c0.7943,0.3774,2.1825,0.8515,4.1466,0.8515c2.1152,0,4.8975-0.5503,8.3213-2.3618
		c0.5615-0.2974,0.7754-0.9932,0.4785-1.5547c-0.2969-0.561-0.9922-0.7739-1.5547-0.4785
		c-6.7395,3.5688-10.2533,1.6028-10.7413,1.2875c-4.0708-3.9347-6.1882-12.5422-6.8058-15.4422l-4.8953-15.9244
		c-0.2498,0.1372-0.4829,0.2684-0.6891,0.3884c-1.5591,0.6172-2.8818,1.8315-3.5898,3.4961
		C13.2535,59.5587,1.148,88.463,0.0025,130.215c-0.0986,3.5889,2.7305,6.5781,6.3184,6.6758
		c0.0615,0.002,0.1211,0.0029,0.1816,0.0029c3.5078,0,6.3975-2.7939,6.4941-6.3213c0.66-24.053,5.2704-43.7735,8.7565-55.4808
		c1.0638,3.6301,2.842,8.3312,5.5225,11.465c-0.5703,0.959-1.0166,2.9297-0.8994,7.3379
		c-1.9678,3.9034-6.9299,24.6696-9.6685,40.2086c-0.8318,4.7193-1.4609,8.9623-1.7358,12.097
		c-0.0322,0.3661,0.123,0.7017,0.3788,0.9368c0.1317,0.1211,0.2817,0.2234,0.464,0.2732c0.1271,0.0347,0.7609,0.2061,1.7723,0.4622
		l-7.4478,71.5361c-0.5723,5.4932,3.418,10.4092,8.9111,10.9814c0.3516,0.0361,0.7012,0.0547,1.0469,0.0547
		c5.0576,0,9.3994-3.8242,9.9346-8.9658l7.2679-69.8067c0.7622,0.0941,1.5247,0.1804,2.2849,0.2571
		c2.4365,0.2461,4.8442,0.397,7.1021,0.397c2.2623,0,4.6753-0.1515,7.1167-0.3985c0.7605-0.0769,1.5229-0.1633,2.2854-0.2575
		l7.2672,69.8085c0.5352,5.1416,4.876,8.9658,9.9336,8.9658c0.3467,0,0.6963-0.0186,1.0479-0.0547
		c5.4932-0.5723,9.4834-5.4883,8.9111-10.9814l-7.4474-71.5398c1.0027-0.254,1.6311-0.4239,1.7576-0.4584
		c0.1886-0.0515,0.3429-0.1591,0.4771-0.2864c0.2472-0.2348,0.3975-0.564,0.3657-0.9235c-0.271-3.0912-0.8862-7.2594-1.7007-11.8993
		c-2.7312-15.5608-7.7273-36.4875-9.7026-40.4064C67.1154,89.4853,66.6691,87.5151,66.0988,86.5566z"/>
</g>
</svg>
