<?xml version="1.0" encoding="utf-8"?>
<!-- Generator: Adobe Illustrator 23.0.2, SVG Export Plug-In . SVG Version: 6.00 Build 0)  -->
<svg version="1.1" id="Layer_1" xmlns="http://www.w3.org/2000/svg" xmlns:xlink="http://www.w3.org/1999/xlink" x="0px" y="0px"
	 viewBox="0 0 93.3741 230.4449" enable-background="new 0 0 93.3741 230.4449" xml:space="preserve">
<g>
	<path d="M34.4869,41.9248c-3.619-2.1699-6.6161-5.2729-8.6567-8.9752c-2.624,3.6406-4.2784,9.0005-3.9246,16.9717
		c0.0029,0.0666,0.0038,0.1284,0.0065,0.1946c3.1409-1.2629,7.2878-2.5671,12.356-3.4458
		C34.3142,45.0206,34.3677,43.4206,34.4869,41.9248z"/>
	<circle cx="46.6872" cy="21.5" r="21.5"/>
	<path d="M74.3375,230.3903c5.4932-0.5718,9.4834-5.4888,8.9111-10.9819l-10.5664-101.5c-0.0767-0.7371-0.2373-1.4441-0.4614-2.1196
		c-1.416-8.5686-4.5732-12.8125-5.4834-22.5723c-0.0482-0.5178-0.0675-1.062-0.0735-1.618H26.7137
		c-0.006,0.556-0.0253,1.1002-0.0735,1.618c-0.9116,9.7769-4.0776,14.02-5.4902,22.6191c-0.2153,0.6611-0.3687,1.353-0.4434,2.0728
		l-10.5674,101.5c-0.5723,5.4932,3.418,10.4102,8.9111,10.9819c0.3516,0.0366,0.7012,0.0547,1.0469,0.0547
		c5.0576,0,9.3994-3.8242,9.9346-8.9653l8.23-79.0488c3.3999-5.8442,6.5693-7.6792,8.4272-7.6792
		c1.8599,0,5.0356,1.8401,8.4404,7.7021l8.2266,79.0259c0.5352,5.1411,4.876,8.9653,9.9336,8.9653
		C73.6363,230.4449,73.9859,230.4269,74.3375,230.3903z"/>
	<path d="M22.6104,72.2916c0.0258,0.0753,0.0508,0.1521,0.0766,0.2276v-0.1708h48v0.1821c0.0282-0.0829,0.0557-0.167,0.084-0.2496
		c3.5337,11.1648,8.8877,32.1123,9.6064,58.291c0.0967,3.5278,2.9863,6.3218,6.4941,6.3218c0.0596,0,0.1201-0.001,0.1816-0.0024
		c3.5879-0.0986,6.417-3.0874,6.3184-6.6758c-1.1455-41.752-13.251-70.6563-13.7656-71.8662
		c-0.708-1.6636-2.0278-2.8779-3.585-3.4956c-3.5562-2.0681-13.5957-6.9353-29.3315-6.9353
		c-15.7285,0-25.7661,4.8623-29.3276,6.9321c-1.561,0.6169-2.8843,1.8323-3.5938,3.4988
		c-0.5146,1.21-12.6201,30.1143-13.7656,71.8662c-0.0986,3.5884,2.7305,6.5771,6.3184,6.6758
		c0.0615,0.0015,0.1211,0.0024,0.1816,0.0024c3.5078,0,6.3975-2.7939,6.4941-6.3218
		C13.7125,104.4869,19.0757,83.4899,22.6104,72.2916z"/>
</g>
</svg>
