<?xml version="1.0" encoding="utf-8"?>
<!-- Generator: Adobe Illustrator 23.0.2, SVG Export Plug-In . SVG Version: 6.00 Build 0)  -->
<svg version="1.1" id="Layer_1" xmlns="http://www.w3.org/2000/svg" xmlns:xlink="http://www.w3.org/1999/xlink" x="0px" y="0px"
	 viewBox="0 0 83.546 184.7507" enable-background="new 0 0 83.546 184.7507" xml:space="preserve">
<g>
	<path fill="#010101" d="M18.9649,105.2077v69.168c0,5.7285,4.6455,10.375,10.3779,10.375c5.7266,0,10.3731-4.6465,10.3731-10.375
		v-49.416h4.1132v49.416c0,5.7285,4.6465,10.375,10.377,10.375c5.7285,0,10.375-4.6465,10.375-10.375v-69.168H18.9649z"/>
	<path fill="#010101" d="M6.7698,117.1665c0.1079,0,0.2168-0.0024,0.3262-0.0078c3.5854-0.1772,6.3481-3.2275,6.1714-6.813
		c-1.324-26.8074,2.5392-40.121,5.6976-46.3911v38.2531h45.6162V63.9549c3.1581,6.2701,7.0214,19.5837,5.6974,46.3908
		c-0.1768,3.5854,2.5859,6.6357,6.1719,6.813c0.1094,0.0054,0.2178,0.0078,0.3252,0.0078c3.4434,0,6.3154-2.7031,6.4873-6.1792
		c1.4619-29.6001-2.7578-50.4902-12.2021-60.4126c-3.3954-3.5669-7.4445-5.6238-11.7892-6.0314
		c-0.2269-0.026-0.4565-0.0427-0.6904-0.0427h-0.1053c-0.2686-0.0126-0.5341-0.0432-0.8046-0.0432
		c-0.2462,0-0.4883,0.0165-0.7274,0.0432H26.6022c-0.2391-0.0267-0.4812-0.0432-0.7274-0.0432
		c-0.2706,0-0.5361,0.0306-0.8046,0.0432h-0.1063c-0.2338,0-0.4636,0.0167-0.6904,0.0427
		c-4.3445,0.4077-8.3936,2.4646-11.7883,6.0313C3.0408,60.4971-1.1785,81.3872,0.283,110.9873
		C0.4548,114.4634,3.3269,117.1665,6.7698,117.1665z"/>
	<circle fill="#010101" cx="41.7731" cy="20.5" r="20.5"/>
</g>
</svg>
