<?xml version="1.0" encoding="UTF-8" standalone="no"?> <svg id="Layer_1" data-name="Layer 1" xmlns="http://www.w3.org/2000/svg" viewBox="0 0 128 128"><defs><style>.cls-1{fill:#2d3e50;}</style></defs><title>b</title><path class="cls-1" d="M52.76884,25.11108a11.475,11.475,0,0,0,22.53085,0l1.75588-9.028A12.09123,12.09123,0,0,0,65.07529,2.36268H62.99323A12.09117,12.09117,0,0,0,51.013,16.08311Z"/><path class="cls-1" d="M101.32178,64.416l-.32748-.60512-2.91867-5.40311-7.17572-13.2765a7.27946,7.27946,0,0,0-1.10718-1.54359,4.28366,4.28366,0,0,0-2.2691-1.23653c-2.95973-.611-11.08513-2.27558-12.99686-2.53045a2.49661,2.49661,0,0,0-1.01085.07117l-.27052-.09255L67.99175,45.053l-2.82617,2.819-.92543.93256-.20586-.20586v-.06856L64,48.56441l-.03428-.03428v.06856l-.20586.20586-.92543-.93256-2.82617-2.819L54.75461,39.7993l-.27052.09255a2.49661,2.49661,0,0,0-1.01085-.07117c-1.91173.25487-10.03713,1.91942-12.99686,2.53045a4.28366,4.28366,0,0,0-2.2691,1.23653,7.27946,7.27946,0,0,0-1.10718,1.54359l-7.17572,13.2765L27.0057,63.81086l-.32748.60512a5.31517,5.31517,0,0,0-.05692,4.89058l9.79538,19.40575a4.98256,4.98256,0,0,0,6.35709,2.34918,4.75263,4.75263,0,0,0,.93256-.51966v15.04194a20.03945,20.03945,0,0,0,20.05353,20.05353c.08051,0,.16007-.00417.24015-.00608.08008.00191.15963.00608.24015.00608a20.032,20.032,0,0,0,20.05353-20.05353V90.54184a4.75263,4.75263,0,0,0,.93256.51966,4.98256,4.98256,0,0,0,6.35709-2.34918l9.79538-19.40575A5.31517,5.31517,0,0,0,101.32178,64.416ZM43.70632,80.42607,38.37433,67.712l5.332-7.08317Zm40.58736,0V60.6288l5.332,7.08317Z"/></svg>