<?xml version="1.0" encoding="utf-8"?>
<!-- Generator: Adobe Illustrator 25.0.0, SVG Export Plug-In . SVG Version: 6.00 Build 0)  -->
<svg version="1.1" id="Layer_1" xmlns="http://www.w3.org/2000/svg" xmlns:xlink="http://www.w3.org/1999/xlink" x="0px" y="0px"
	 viewBox="0 0 71.7833 230.2903" enable-background="new 0 0 71.7833 230.2903" xml:space="preserve">
<g>
	<path d="M35.8918,81.529l7.9192-25.2122l0.5221-7.9352c-2.6001-0.3058-5.413-0.488-8.44-0.488
		c-3.028,0-5.8417,0.1824-8.4425,0.4883l0.522,7.935L35.8918,81.529z"/>
	<path d="M47.2049,56.4785l3.0707,5.4949L35.8918,85.731L22.927,64.3173c-0.6542,1.3123-1.459,2.5433-2.4749,3.649
		c-7.0637,7.6895-14.2421,6.8798-17.0001,6.1748c-0.7252-0.1854-1.4735-0.4524-2.1675-0.7921l-1.2831,60.2634
		c-0.0762,3.5889,2.771,6.5601,6.3604,6.6367c0.0474,0.001,0.0938,0.0015,0.1411,0.0015c0.342,0,0.6758-0.0342,1.004-0.0854
		c1.0909-0.1701,2.0928-0.6096,2.935-1.2537l1.3894,24.9301c0,0,18.061,1.875,24.061,1.875s24.061-1.875,24.061-1.875
		l1.3893-24.9288c0.8422,0.6438,1.8444,1.0829,2.9352,1.2527c0.3277,0.051,0.6608,0.0851,1.0024,0.0851
		c0.0469,0,0.0942-0.0005,0.1411-0.0015c3.5894-0.0767,6.4365-3.0479,6.3604-6.6367l-1.5356-72.125
		c-0.053-2.4985-1.518-4.6356-3.6079-5.6791c0.0219-0.0404,0.0359-0.066,0.0359-0.066s-5.3515-3.8808-15.4744-6.1844l0.692,6.9205
		H47.2049z M17.612,93.1916c-0.4794,5.6384-2.2823,9.4348-4.0298,13.2877l0.6473-30.4034
		C16.4063,82.199,18.0085,88.524,17.612,93.1916z M57.5539,76.0805l0.6472,30.3951c-1.7468-3.8518-3.5488-7.6476-4.0269-13.2841
		C53.7772,88.5252,55.3782,82.2022,57.5539,76.0805z"/>
	<path d="M35.8919,168.7167c-3.925,0-12.6127-0.7545-18.4882-1.311l3.548,53.5454c0.3652,5.5113,5.1279,9.6821,10.6393,9.317
		c1.5688-0.1039,3.0227-0.5742,4.3008-1.3071c1.2781,0.7328,2.732,1.2031,4.3008,1.3071c5.5113,0.3652,10.2741-3.8057,10.6393-9.317
		l3.548-53.5453C48.5039,167.9623,39.8167,168.7167,35.8919,168.7167z"/>
	<path d="M5.7632,65.5685c1.418-1.4473,3.0007-4.6986,3.1063-11.9686C6.3853,54.816,5.11,55.7424,5.11,55.7424
		s0.0135,0.0248,0.0378,0.0696c-2.088,1.0442-3.5577,3.178-3.6107,5.6755l-0.1188,5.5824c0.1176-0.0054,0.2249-0.0215,0.3503-0.0186
		C3.464,67.091,4.7334,66.6202,5.7632,65.5685z"/>
	<path d="M18.7589,66.4099c5.4971-5.9832,4.3084-16.6467,4.9326-24.485c-3.619-2.1699-6.6161-5.2728-8.6567-8.9752
		c-2.624,3.6406-4.2784,9.0005-3.9246,16.9717c0.7438,16.7548-4.8547,19.5364-9.3961,19.4294S8.4308,77.6513,18.7589,66.4099z"/>
	<circle cx="35.8918" cy="21.5" r="21.5"/>
</g>
</svg>
